<?xml version="1.0" standalone="no"?>
<!DOCTYPE svg PUBLIC "-//W3C//DTD SVG 20010904//EN"
 "http://www.w3.org/TR/2001/REC-SVG-20010904/DTD/svg10.dtd">
<svg version="1.0" xmlns="http://www.w3.org/2000/svg"
 width="257.000000pt" height="196.000000pt" viewBox="0 0 257.000000 196.000000"
 preserveAspectRatio="xMidYMid meet">

<g transform="translate(0.000000,196.000000) scale(0.100000,-0.100000)"
fill="#000000" stroke="none">
<path d="M1130 1944 c-385 -69 -682 -351 -766 -725 -23 -102 -23 -291 0 -389
34 -146 98 -279 186 -389 29 -35 48 -67 43 -71 -17 -16 -104 18 -185 72 -95
63 -132 78 -197 78 -64 0 -82 -14 -45 -33 40 -21 124 -114 124 -138 0 -4 -39
-9 -87 -11 -57 -3 -108 -13 -146 -27 -54 -21 -68 -41 -27 -41 43 0 155 -45
283 -114 165 -88 221 -113 273 -121 38 -6 40 -5 79 47 21 29 39 54 40 55 0 1
39 -13 86 -32 175 -69 405 -112 546 -101 122 9 270 40 386 81 151 54 138 54
183 -5 38 -50 40 -51 79 -44 54 8 109 33 272 120 128 69 240 114 283 114 41 0
27 20 -27 41 -38 14 -89 24 -145 27 -49 2 -88 7 -88 11 0 24 84 117 124 138
37 19 19 33 -45 33 -64 0 -102 -15 -197 -78 -87 -57 -169 -89 -185 -73 -5 5 9
31 35 63 91 112 160 252 194 394 22 93 22 294 0 393 -35 157 -116 312 -226
434 -206 228 -550 346 -850 291z m385 -34 c462 -121 763 -581 681 -1040 -27
-151 -100 -310 -188 -414 -59 -69 -57 -49 3 30 61 80 129 219 155 319 27 99
27 341 0 440 -73 278 -282 512 -548 615 -123 48 -223 63 -372 57 -239 -9 -416
-84 -589 -247 -117 -109 -190 -228 -242 -390 -33 -103 -45 -294 -26 -405 24
-137 85 -277 171 -390 58 -76 61 -98 5 -33 -193 224 -255 571 -155 866 57 166
190 344 335 448 112 79 267 142 402 164 91 14 277 4 368 -20z m-302 -17 c-7
-2 -19 -2 -25 0 -7 3 -2 5 12 5 14 0 19 -2 13 -5z m95 0 c-10 -2 -26 -2 -35 0
-10 3 -2 5 17 5 19 0 27 -2 18 -5z m-161 -9 c-3 -3 -12 -4 -19 -1 -8 3 -5 6 6
6 11 1 17 -2 13 -5z m-2 -34 c3 -5 -1 -10 -10 -10 -9 0 -13 5 -10 10 3 6 8 10
10 10 2 0 7 -4 10 -10z m135 0 c0 -5 -5 -10 -11 -10 -5 0 -7 5 -4 10 3 6 8 10
11 10 2 0 4 -4 4 -10z m88 -28 c13 2 16 -4 13 -34 -2 -29 1 -38 13 -38 9 0 16
-7 16 -15 0 -9 9 -15 21 -15 19 0 21 4 15 33 -3 19 -3 27 3 19 6 -11 10 -9 14
7 3 12 11 21 17 21 12 0 9 -24 -6 -64 -4 -9 -3 -16 2 -15 37 6 49 -25 13 -34
-12 -3 -18 -3 -15 1 8 7 -69 32 -101 32 -19 0 -23 6 -24 33 l-1 32 -7 -29 c-4
-21 -14 -32 -33 -37 -16 -4 -29 -5 -29 -3 -1 2 -2 8 -3 13 0 5 -3 12 -6 15 -3
3 -4 23 -2 45 3 28 9 41 23 44 14 4 19 1 17 -11 -2 -10 -7 -20 -12 -23 -10 -8
2 -49 15 -49 5 0 9 7 9 16 0 8 -4 12 -10 9 -5 -3 -10 -1 -10 4 0 6 5 11 10 11
6 0 10 9 10 20 0 11 5 20 10 20 6 0 11 8 11 18 1 11 3 9 6 -6 3 -14 11 -22 21
-20z m-383 18 c-3 -5 -12 -10 -18 -10 -7 0 -6 4 3 10 19 12 23 12 15 0z m267
-24 c12 -17 9 -46 -4 -46 -6 0 -4 -8 6 -19 16 -17 16 -20 1 -35 -19 -19 -35
-21 -35 -5 0 7 -12 10 -30 7 -16 -3 -30 -1 -30 4 0 4 -7 8 -16 8 -8 0 -13 -4
-10 -9 3 -5 -1 -14 -9 -21 -12 -10 -15 -10 -15 0 0 6 -6 10 -12 7 -7 -2 -12
-9 -11 -14 1 -5 -11 -9 -28 -8 -33 2 -35 -2 -13 -26 12 -13 12 -19 3 -25 -7
-4 -10 -3 -5 4 3 6 -1 15 -10 20 -11 6 -16 22 -16 51 1 37 -1 41 -19 36 -11
-4 -19 -2 -19 4 0 6 7 11 15 11 8 0 15 7 15 15 0 8 8 15 18 16 9 0 27 2 39 3
12 1 20 -1 18 -5 -3 -4 2 -20 10 -35 l15 -29 1 28 c3 48 4 52 20 55 10 2 21
-8 29 -28 17 -42 30 -47 25 -9 -2 17 -12 37 -22 44 -17 13 -17 14 3 9 12 -3
25 -1 29 6 8 12 46 3 57 -14z m398 4 c0 -5 -5 -10 -11 -10 -5 0 -7 5 -4 10 3
6 8 10 11 10 2 0 4 -4 4 -10z m-610 -10 c0 -5 -7 -7 -15 -4 -8 4 -15 8 -15 10
0 2 7 4 15 4 8 0 15 -4 15 -10z m484 -27 c-7 -37 -14 -42 -14 -11 0 21 7 38
16 38 1 0 0 -12 -2 -27z m-641 3 c4 -10 1 -13 -8 -9 -8 3 -12 9 -9 14 7 12 11
11 17 -5z m682 -18 c4 -14 8 -18 12 -10 7 19 36 15 29 -4 -3 -9 -9 -27 -12
-40 -8 -30 -63 -60 -78 -43 -8 9 -7 10 2 5 10 -6 11 -1 6 18 -6 26 12 96 26
96 4 0 11 -10 15 -22z m-641 -3 c3 -8 1 -15 -3 -15 -5 0 -11 7 -15 15 -3 8 -1
15 3 15 5 0 11 -7 15 -15z m49 8 c-7 -2 -19 -2 -25 0 -7 3 -2 5 12 5 14 0 19
-2 13 -5z m747 -13 c0 -5 -2 -10 -4 -10 -3 0 -8 5 -11 10 -3 6 -1 10 4 10 6 0
11 -4 11 -10z m-751 -27 c8 -18 15 -23 20 -15 4 6 7 -4 7 -23 0 -34 -17 -47
-31 -25 -3 6 -12 10 -18 10 -7 0 -4 -7 7 -15 19 -14 16 -45 -4 -45 -6 0 -8 5
-4 11 4 7 1 10 -7 7 -8 -3 -14 -11 -14 -19 0 -9 -11 -14 -32 -13 -24 1 -30 -2
-25 -14 4 -11 1 -14 -11 -9 -9 4 -25 10 -34 13 -16 5 -16 4 -3 -8 18 -15 24
-58 9 -58 -5 0 -8 4 -4 9 3 5 -4 12 -15 16 -12 4 -18 11 -14 18 5 9 3 8 -6 0
-10 -10 -11 -18 -2 -37 9 -19 8 -25 -4 -30 -8 -3 -14 1 -14 10 0 8 -4 13 -9
10 -4 -3 -17 2 -27 10 -19 15 -19 15 1 9 16 -5 17 -4 8 6 -7 7 -23 13 -37 14
-23 1 -22 -2 15 -33 42 -36 43 -58 1 -47 -22 5 -24 4 -13 -9 9 -11 10 -20 1
-36 -6 -11 -15 -18 -20 -15 -5 3 -11 1 -15 -4 -3 -5 2 -14 11 -19 15 -9 15
-11 -5 -22 -16 -8 -21 -18 -18 -31 3 -10 0 -22 -5 -26 -7 -4 -8 -1 -3 8 6 11
5 11 -5 3 -6 -7 -13 -24 -13 -38 -1 -14 -5 -26 -9 -26 -5 0 -8 -11 -8 -25 0
-27 -7 -30 -30 -14 -13 9 -12 10 3 5 9 -3 17 -2 17 3 0 5 -8 11 -18 13 -14 4
-18 -1 -20 -23 -2 -22 1 -27 13 -23 11 5 15 -1 15 -21 0 -23 -2 -26 -15 -15
-12 10 -18 10 -32 -1 -15 -12 -16 -12 -10 3 4 13 0 18 -20 20 -35 4 -38 33 -5
58 26 21 26 21 4 27 -24 6 -30 23 -8 23 8 0 16 10 18 23 2 15 9 21 21 19 15
-3 16 0 5 17 -9 16 -9 25 1 48 8 16 16 23 18 16 3 -7 12 -13 20 -13 10 0 13
-6 8 -17 -5 -14 -4 -15 6 -6 9 9 16 10 26 2 20 -17 16 -1 -6 22 -12 13 -25 18
-33 14 -10 -6 -10 -5 -1 5 9 9 9 19 2 32 -6 11 -8 22 -5 26 3 3 6 0 6 -6 0 -6
8 -10 18 -10 9 0 25 -3 35 -7 12 -5 17 -3 17 8 0 8 -7 17 -15 21 -24 9 -17 24
12 28 25 3 25 4 8 18 -10 8 -16 10 -12 4 3 -6 0 -11 -7 -11 -7 0 -13 6 -13 13
0 7 4 11 8 8 4 -2 15 6 23 18 9 12 16 19 16 14 0 -5 9 -1 19 8 12 11 17 24 13
34 -4 10 4 7 20 -8 18 -18 23 -29 15 -37 -6 -9 -6 -13 1 -13 17 0 25 21 13 33
-6 6 -11 19 -11 28 0 10 -5 19 -12 21 -7 3 -5 7 6 11 10 4 15 3 11 -3 -3 -6
-2 -10 4 -10 5 0 13 5 17 11 3 6 15 9 25 6 11 -3 19 -1 19 4 0 5 -8 9 -17 10
-12 0 -8 4 10 11 15 5 24 14 21 20 -4 7 -2 8 4 4 18 -11 37 4 21 16 -11 8 -11
9 1 5 8 -2 14 -10 13 -16 -2 -6 2 -11 7 -11 6 0 10 7 10 15 0 20 9 19 32 -2
19 -17 19 -16 13 10 -9 35 8 35 24 0z m806 -13 c-3 -5 -12 -7 -21 -3 -8 3 -14
2 -13 -3 1 -5 1 -11 -1 -14 -1 -3 -3 -16 -6 -30 -3 -21 -2 -22 7 -7 11 18 39
24 39 7 0 -5 -3 -10 -7 -10 -5 0 -15 -13 -25 -29 l-16 -29 34 20 c36 21 74 18
57 -5 -6 -6 -15 -27 -22 -46 -11 -34 -11 -34 9 -16 11 10 20 26 20 37 0 22 13
23 30 3 10 -12 10 -18 1 -29 -8 -10 -9 -16 -1 -21 5 -3 15 6 20 21 12 31 17
29 24 -9 3 -19 1 -27 -10 -27 -9 0 -12 -5 -8 -12 4 -7 3 -10 -1 -5 -5 4 -19
-3 -32 -15 -25 -23 -44 -18 -23 7 10 12 11 18 1 28 -10 9 -11 9 -6 -4 4 -12
-1 -15 -25 -15 -30 0 -34 5 -30 40 1 10 -2 16 -7 13 -5 -3 -22 1 -37 8 -16 8
-32 12 -37 9 -5 -3 -6 2 -3 10 4 10 -2 17 -18 21 l-25 6 29 31 c44 48 51 65
31 77 -17 10 -17 10 0 11 9 0 17 -4 17 -10 0 -5 5 -10 10 -10 6 0 10 7 10 15
0 13 4 14 20 5 11 -6 18 -15 15 -20z m-981 11 c-8 -8 -43 -8 -38 0 2 4 13 7
24 6 10 -1 17 -3 14 -6z m890 -16 c15 -23 15 -25 0 -25 -10 0 -14 -3 -11 -6
13 -13 -14 -44 -38 -44 -41 0 -53 47 -22 88 16 20 53 14 71 -13z m-961 -39
c-6 -10 -13 -12 -23 -6 -13 8 -12 10 3 10 9 0 17 5 17 12 0 6 3 9 6 5 3 -3 2
-12 -3 -21z m495 9 c2 -2 0 -5 -5 -8 -4 -3 -21 1 -38 8 l-30 14 35 -6 c19 -3
36 -7 38 -8z m615 -32 c-7 -2 -19 -2 -25 0 -7 3 -2 5 12 5 14 0 19 -2 13 -5z
m-1169 -18 c-4 -8 -11 -15 -16 -15 -6 0 -5 6 2 15 7 8 14 15 16 15 2 0 1 -7
-2 -15z m39 -6 c-4 -15 -9 -17 -17 -9 -8 8 -7 13 4 20 8 5 16 10 17 10 0 0 -1
-9 -4 -21z m741 1 c386 -98 579 -510 399 -852 -171 -325 -596 -431 -911 -226
-223 145 -323 425 -243 680 44 139 170 283 310 353 129 64 301 82 445 45z
m166 -22 c0 -5 -4 -8 -10 -8 -5 0 -9 6 -7 13 1 7 -6 11 -17 9 -15 -3 -16 -1
-5 11 12 12 15 12 26 -2 7 -9 13 -19 13 -23z m30 -18 c0 -5 -4 -10 -10 -10 -5
0 -10 5 -10 10 0 6 5 10 10 10 6 0 10 -4 10 -10z m-1020 -14 c0 -3 -4 -8 -10
-11 -5 -3 -10 -1 -10 4 0 6 5 11 10 11 6 0 10 -2 10 -4z m295 -14 c-3 -3 -11
0 -18 7 -9 10 -8 11 6 5 10 -3 15 -9 12 -12z m795 -27 c13 -14 21 -25 18 -25
-2 0 -15 11 -28 25 -13 14 -21 25 -18 25 2 0 15 -11 28 -25z m35 15 c-3 -5
-11 -10 -16 -10 -6 0 -7 5 -4 10 3 6 11 10 16 10 6 0 7 -4 4 -10z m-914 -50
c-39 -35 -38 -34 -38 -15 0 8 3 12 6 10 4 -2 18 5 31 16 38 29 39 22 1 -11z
m1128 -67 c-12 -14 -12 -16 1 -8 22 14 40 15 37 2 -4 -20 -26 -38 -38 -31 -8
5 -9 3 -4 -5 4 -7 17 -10 30 -7 27 7 42 -9 26 -28 -6 -7 -7 -17 -3 -21 4 -5 2
-5 -5 -1 -6 3 -15 1 -18 -5 -11 -17 -1 -19 33 -10 19 6 32 6 32 1 0 -10 -38
-34 -54 -35 -13 0 -20 -25 -7 -25 6 0 11 -5 11 -11 0 -5 -4 -8 -9 -5 -5 3 -11
-3 -14 -14 -5 -21 8 -25 49 -14 16 4 21 12 18 27 -3 13 -2 16 2 7 4 -8 13 -21
21 -28 7 -7 13 -30 13 -50 0 -28 -3 -33 -12 -24 -16 16 -30 15 -54 -4 -18 -15
-18 -15 5 -8 17 4 21 3 16 -6 -4 -7 -2 -10 6 -9 19 4 59 -10 59 -20 0 -4 -18
-16 -41 -26 -38 -18 -40 -19 -18 -27 12 -5 29 -6 36 -4 13 5 17 -6 14 -33 -2
-8 2 -10 10 -5 19 11 -1 -19 -23 -34 -14 -10 -16 -17 -8 -27 5 -7 9 -29 8 -49
-2 -28 -7 -35 -18 -30 -8 3 -27 10 -42 14 -15 5 -37 18 -50 31 -13 12 -17 19
-10 14 9 -4 15 0 19 13 6 23 29 36 45 25 7 -3 8 -1 4 5 -4 7 -18 9 -32 6 -14
-4 -24 -2 -24 5 0 6 5 11 11 11 8 0 7 6 -2 18 -13 15 -12 16 3 4 9 -8 23 -10
29 -6 9 5 7 9 -6 14 -19 7 -32 50 -14 50 5 0 7 5 4 10 -3 6 -1 10 5 10 6 0 8
5 5 10 -4 6 -16 8 -28 5 -16 -5 -18 -4 -8 3 8 6 10 15 5 23 -4 7 -9 34 -10 59
-1 50 -12 90 -24 90 -5 0 -7 11 -6 25 2 15 -1 22 -7 18 -6 -4 -8 0 -4 10 3 9
0 18 -9 21 -9 3 -12 10 -9 16 3 5 -1 10 -10 10 -14 0 -14 2 1 25 l16 24 -31
-9 c-36 -10 -51 4 -21 20 23 13 27 30 5 30 -8 0 -15 5 -15 10 0 7 7 7 21 -1
17 -9 24 -7 40 10 10 11 19 26 19 33 0 7 10 -6 21 -30 18 -36 19 -45 8 -59z
m61 71 c0 -14 -3 -14 -15 -4 -8 7 -15 14 -15 16 0 2 7 4 15 4 8 0 15 -7 15
-16z m20 -28 c0 -3 -4 -8 -10 -11 -5 -3 -10 -1 -10 4 0 6 5 11 10 11 6 0 10
-2 10 -4z m-249 -23 c13 -16 12 -17 -3 -4 -17 13 -22 21 -14 21 2 0 10 -8 17
-17z m-1039 -15 c-7 -7 -12 -8 -12 -2 0 14 12 26 19 19 2 -3 -1 -11 -7 -17z
m1313 3 c3 -5 1 -12 -5 -16 -5 -3 -10 1 -10 9 0 18 6 21 15 7z m-1557 -32 c-1
-17 -4 -25 -8 -18 -7 10 -2 49 5 49 2 0 3 -14 3 -31z m23 -2 c-10 -9 -11 -8
-5 6 3 10 9 15 12 12 3 -3 0 -11 -7 -18z m1541 -19 c-7 -7 -12 -8 -12 -2 0 6
3 14 7 17 3 4 9 5 12 2 2 -3 -1 -11 -7 -17z m-212 -23 c0 -5 -5 -3 -10 5 -5 8
-10 20 -10 25 0 6 5 3 10 -5 5 -8 10 -19 10 -25z m24 -31 c5 -14 4 -15 -9 -4
-17 14 -19 20 -6 20 5 0 12 -7 15 -16z m-1190 -3 c3 -5 -1 -11 -9 -14 -9 -4
-12 -1 -8 9 6 16 10 17 17 5z m-237 -35 c-7 -14 -13 -23 -15 -21 -7 6 9 45 18
45 4 0 3 -11 -3 -24z m33 -36 c0 -5 -4 -10 -10 -10 -5 0 -10 5 -10 10 0 6 5
10 10 10 6 0 10 -4 10 -10z m-33 -42 c-3 -8 -6 -5 -6 6 -1 11 2 17 5 13 3 -3
4 -12 1 -19z m-30 -20 c-3 -7 -5 -2 -5 12 0 14 2 19 5 13 2 -7 2 -19 0 -25z
m223 -18 c0 -5 -2 -10 -4 -10 -3 0 -8 5 -11 10 -3 6 -1 10 4 10 6 0 11 -4 11
-10z m-32 -36 c-16 -8 -28 -18 -28 -23 0 -5 -10 -12 -22 -16 -15 -4 -18 -8
-10 -12 19 -7 64 6 57 17 -3 6 -2 10 4 10 22 0 19 -18 -4 -30 -19 -10 -24 -19
-19 -34 7 -21 6 -21 -15 -2 -11 11 -21 14 -21 8 0 -7 4 -12 10 -12 5 0 12 -11
16 -25 3 -14 11 -25 18 -25 22 0 -19 -20 -44 -21 l-25 -1 28 -10 c15 -5 27
-15 28 -21 0 -7 4 -3 9 8 8 17 9 15 7 -10 -1 -22 3 -30 17 -33 13 -3 16 0 11
9 -5 8 -4 10 4 5 18 -12 -7 -37 -33 -32 -11 2 -15 1 -8 -1 16 -6 15 -13 -5
-35 -9 -10 -11 -18 -5 -18 6 0 14 5 17 10 3 6 11 10 16 10 6 0 7 -4 4 -10 -3
-5 1 -10 9 -10 9 0 16 -4 16 -10 0 -5 -15 -10 -33 -10 -18 0 -49 -8 -68 -18
-33 -17 -35 -17 -34 -1 1 10 8 25 16 35 12 16 12 17 -3 11 -12 -4 -18 -2 -18
8 0 8 15 19 33 25 l32 10 -30 -4 c-42 -6 -54 3 -60 49 -3 24 -1 35 4 26 7 -10
10 -10 16 -1 5 8 1 16 -9 22 -9 5 -16 20 -16 34 0 19 8 29 33 39 17 8 26 14
19 15 -7 0 -21 -4 -31 -10 -16 -8 -18 -5 -18 15 0 15 5 25 13 25 12 0 11 5 -2
25 -18 28 -10 33 16 10 13 -12 20 -12 42 -1 15 8 29 12 32 9 2 -3 13 0 23 6
10 6 23 10 28 10 6 0 -2 -7 -17 -15z m1539 -71 c-3 -10 -5 -2 -5 17 0 19 2 27
5 18 2 -10 2 -26 0 -35z m-200 -15 c-3 -8 -6 -5 -6 6 -1 11 2 17 5 13 3 -3 4
-12 1 -19z m128 12 c-3 -5 -12 -10 -18 -10 -7 0 -6 4 3 10 19 12 23 12 15 0z
m-1455 -21 c0 -6 -4 -7 -10 -4 -5 3 -10 11 -10 16 0 6 5 7 10 4 6 -3 10 -11
10 -16z m1507 -41 c-3 -8 -6 -5 -6 6 -1 11 2 17 5 13 3 -3 4 -12 1 -19z m30 0
c-3 -8 -6 -5 -6 6 -1 11 2 17 5 13 3 -3 4 -12 1 -19z m-1529 -13 c-3 -3 -9 2
-12 12 -6 14 -5 15 5 6 7 -7 10 -15 7 -18z m-221 -97 c-3 -8 -6 -5 -6 6 -1 11
2 17 5 13 3 -3 4 -12 1 -19z m1605 -30 c27 -8 38 -16 36 -28 -2 -9 3 -24 9
-32 11 -12 9 -18 -7 -33 -11 -10 -20 -13 -20 -8 0 6 7 14 16 17 8 3 12 11 9
17 -5 6 -11 4 -19 -7 -11 -14 -18 -15 -46 -6 -42 15 -45 15 -30 -3 7 -8 17
-12 23 -8 5 3 7 2 4 -4 -3 -5 3 -17 15 -27 25 -21 11 -36 -28 -28 -17 3 -24 0
-24 -12 0 -9 7 -19 15 -22 8 -4 15 -12 15 -20 0 -17 -12 -18 -27 -3 -9 9 -10
4 -7 -20 3 -18 1 -31 -5 -31 -6 0 -11 3 -11 8 0 10 -62 37 -79 33 -10 -2 -8 3
4 16 20 20 37 23 46 10 4 -5 9 -5 13 1 3 6 -3 13 -14 17 -20 7 -28 25 -10 25
6 0 10 6 10 14 0 7 10 16 22 19 22 6 22 6 2 28 -10 12 -14 20 -8 16 5 -3 15 7
21 24 7 17 7 29 2 29 -12 0 13 29 25 30 5 0 26 -5 48 -12z m-1595 -30 c-3 -7
-5 -2 -5 12 0 14 2 19 5 13 2 -7 2 -19 0 -25z m214 -49 c9 -17 13 -19 20 -8 5
8 9 9 9 4 0 -6 -14 -23 -31 -38 -27 -23 -26 -33 3 -28 4 0 5 -6 2 -14 -4 -8
-2 -15 4 -15 6 0 12 5 14 12 2 6 10 8 17 4 7 -5 10 -15 7 -23 -5 -11 -2 -13 9
-9 10 3 13 2 10 -5 -4 -6 -14 -8 -22 -5 -8 3 -28 -1 -45 -10 -27 -14 -31 -14
-47 0 -10 9 -20 14 -23 11 -2 -3 -5 2 -5 10 0 8 4 12 9 9 4 -3 8 -3 8 0 0 2 3
11 6 19 4 11 -2 16 -18 19 -34 5 -38 60 -6 76 37 17 66 14 79 -9z m1235 -67
c-10 -10 -29 15 -21 28 6 9 10 8 17 -4 6 -10 7 -20 4 -24z m-1201 18 c-3 -5
-1 -10 6 -10 7 0 10 -2 7 -5 -3 -3 -13 -2 -22 1 -14 5 -15 9 -4 15 17 11 20
11 13 -1z m40 -40 c3 -5 1 -10 -4 -10 -6 0 -11 5 -11 10 0 6 2 10 4 10 3 0 8
-4 11 -10z m-218 -32 c-3 -8 -6 -5 -6 6 -1 11 2 17 5 13 3 -3 4 -12 1 -19z
m1315 -10 c-7 -7 -12 -8 -12 -2 0 14 12 26 19 19 2 -3 -1 -11 -7 -17z m-22
-22 c0 -3 -4 -8 -10 -11 -5 -3 -10 -1 -10 4 0 6 5 11 10 11 6 0 10 -2 10 -4z
m205 -6 c-3 -5 -12 -10 -18 -10 -7 0 -6 4 3 10 19 12 23 12 15 0z m65 -17 c0
-19 -3 -24 -10 -17 -6 6 -8 18 -4 27 9 24 14 21 14 -10z m-179 -11 c-13 -25
-40 -46 -48 -38 -3 3 -1 6 5 6 6 0 9 7 6 15 -5 11 -2 13 10 9 9 -4 16 -3 15 2
-3 16 1 24 11 24 7 0 7 -6 1 -18z m-111 -6 c0 -2 -7 -7 -16 -10 -8 -3 -12 -2
-9 4 6 10 25 14 25 6z m-1037 -27 l22 -21 -22 11 c-12 6 -25 16 -28 21 -11 17
5 11 28 -11z m-113 1 c0 -5 -4 -10 -10 -10 -5 0 -10 5 -10 10 0 6 5 10 10 10
6 0 10 -4 10 -10z m1110 -4 c0 -2 -6 -9 -14 -15 -11 -9 -16 -9 -22 0 -4 7 -3
9 4 5 6 -3 13 -2 17 4 6 10 15 14 15 6z m30 -26 c-6 -11 -13 -20 -16 -20 -2 0
0 9 6 20 6 11 13 20 16 20 2 0 0 -9 -6 -20z m130 0 c0 -5 -2 -10 -4 -10 -3 0
-8 5 -11 10 -3 6 -1 10 4 10 6 0 11 -4 11 -10z m130 0 c0 -5 -5 -10 -11 -10
-5 0 -7 5 -4 10 3 6 8 10 11 10 2 0 4 -4 4 -10z m-1420 -10 c0 -5 -4 -10 -10
-10 -5 0 -10 5 -10 10 0 6 5 10 10 10 6 0 10 -4 10 -10z m40 1 c0 -5 -7 -11
-14 -14 -10 -4 -13 -1 -9 9 6 15 23 19 23 5z m1229 -5 c-2 -2 -15 -9 -29 -16
-23 -12 -24 -12 -11 3 7 10 20 17 29 17 8 0 13 -2 11 -4z m-1113 -22 c27 -15
27 -15 4 -10 -14 3 -31 6 -37 6 -7 0 -13 5 -13 10 0 14 13 12 46 -6z m-516
-18 c-5 -7 -7 -16 -3 -19 3 -4 4 -7 1 -7 -3 0 -12 8 -21 18 -14 16 -14 17 9
18 19 2 22 -1 14 -10z m1364 4 c-12 -5 -25 -13 -29 -19 -3 -6 -11 -11 -17 -11
-5 0 0 9 13 20 13 10 31 19 39 19 9 0 6 -4 -6 -9z m191 -20 c13 -6 15 -9 5 -9
-8 0 -22 4 -30 9 -18 12 -2 12 25 0z m530 0 c4 -6 -7 -10 -27 -9 -31 1 -32 1
-8 9 14 4 26 8 27 9 1 1 5 -3 8 -9z m-1988 -31 c-14 -22 -23 -24 -33 -7 -4 7
-3 8 4 4 11 -6 16 5 13 26 0 4 6 5 14 2 11 -5 12 -10 2 -25z m1900 16 c0 -8
-4 -12 -9 -9 -5 3 -6 10 -3 15 9 13 12 11 12 -6z m-707 1 c0 -2 -7 -6 -15 -10
-8 -3 -15 -1 -15 4 0 6 7 10 15 10 8 0 15 -2 15 -4z m-415 -26 c-3 -5 -14 -10
-23 -9 -14 0 -13 2 3 9 27 11 27 11 20 0z m348 3 c-7 -2 -19 -2 -25 0 -7 3 -2
5 12 5 14 0 19 -2 13 -5z m102 -3 c3 -5 -1 -10 -9 -10 -9 0 -16 5 -16 10 0 6
4 10 9 10 6 0 13 -4 16 -10z m-625 -26 c0 -2 -9 0 -20 6 -11 6 -20 13 -20 16
0 2 9 0 20 -6 11 -6 20 -13 20 -16z m967 4 c-3 -8 -6 -5 -6 6 -1 11 2 17 5 13
3 -3 4 -12 1 -19z m-1262 2 c3 -5 1 -10 -4 -10 -6 0 -11 5 -11 10 0 6 2 10 4
10 3 0 8 -4 11 -10z m440 0 c13 -6 15 -9 5 -9 -8 0 -22 4 -30 9 -18 12 -2 12
25 0z m1077 -13 c-12 -13 -19 -27 -15 -30 3 -4 4 -7 1 -7 -3 0 -12 8 -19 17
-9 10 -9 14 -2 10 7 -5 16 1 23 13 6 11 16 20 22 20 6 0 2 -10 -10 -23z
m-1407 -17 c-7 -11 -45 -33 -45 -26 0 2 7 12 16 20 17 18 39 22 29 6z m652 4
c-3 -3 -12 -4 -19 -1 -8 3 -5 6 6 6 11 1 17 -2 13 -5z m184 -12 c-13 -2 -27 0
-32 5 -6 6 3 7 23 4 28 -4 29 -6 9 -9z m-334 2 c-3 -3 -12 -4 -19 -1 -8 3 -5
6 6 6 11 1 17 -2 13 -5z m66 -1 c-7 -2 -21 -2 -30 0 -10 3 -4 5 12 5 17 0 24
-2 18 -5z m543 -8 c20 -19 4 -20 -22 0 -12 9 -14 14 -6 15 7 0 20 -7 28 -15z
m219 -5 c-3 -5 -12 -10 -18 -10 -7 0 -6 4 3 10 19 12 23 12 15 0z m-1165 -10
c0 -5 -10 -10 -22 -9 -22 0 -22 1 -3 9 11 5 21 9 23 9 1 1 2 -3 2 -9z m207 4
c-3 -3 -12 -4 -19 -1 -8 3 -5 6 6 6 11 1 17 -2 13 -5z m333 -4 c0 -5 -4 -10
-9 -10 -6 0 -13 5 -16 10 -3 6 1 10 9 10 9 0 16 -4 16 -10z m500 0 c0 -5 -2
-10 -4 -10 -3 0 -8 5 -11 10 -3 6 -1 10 4 10 6 0 11 -4 11 -10z m-1136 -15
c-4 -8 -10 -12 -15 -9 -11 6 -2 24 11 24 5 0 7 -7 4 -15z m961 5 c3 -5 2 -10
-4 -10 -5 0 -13 5 -16 10 -3 6 -2 10 4 10 5 0 13 -4 16 -10z m-425 -10 c0 -13
-20 -13 -40 0 -12 8 -9 10 13 10 15 0 27 -4 27 -10z m380 0 c0 -5 -4 -10 -9
-10 -6 0 -13 5 -16 10 -3 6 1 10 9 10 9 0 16 -4 16 -10z m280 -6 c0 -8 -4 -12
-10 -9 -5 3 -10 10 -10 16 0 5 5 9 10 9 6 0 10 -7 10 -16z m-1413 -16 c-3 -8
-6 -5 -6 6 -1 11 2 17 5 13 3 -3 4 -12 1 -19z m936 15 c3 -5 -6 -9 -19 -9 -13
-1 -21 2 -18 7 6 11 31 12 37 2z m715 -18 c-3 -3 -9 2 -12 12 -6 14 -5 15 5 6
7 -7 10 -15 7 -18z m-2051 9 c-3 -3 -12 -4 -19 -1 -8 3 -5 6 6 6 11 1 17 -2
13 -5z m108 -12 c-3 -3 -11 0 -18 7 -9 10 -8 11 6 5 10 -3 15 -9 12 -12z m450
9 c3 -5 2 -12 -3 -15 -5 -3 -9 1 -9 9 0 17 3 19 12 6z m395 -1 c0 -5 -5 -10
-11 -10 -5 0 -7 5 -4 10 3 6 8 10 11 10 2 0 4 -4 4 -10z m613 -21 c2 -8 7 -21
12 -29 8 -13 7 -13 -8 -1 -9 7 -14 17 -11 22 3 5 -2 12 -10 15 -9 3 -13 11
-10 16 7 12 24 -3 27 -23z m103 -7 c-6 -5 -36 23 -36 34 0 4 9 -1 20 -11 11
-10 18 -20 16 -23z m-1061 18 c-3 -5 -14 -10 -23 -10 -15 0 -15 2 -2 10 20 13
33 13 25 0z m618 3 c-7 -2 -19 -2 -25 0 -7 3 -2 5 12 5 14 0 19 -2 13 -5z
m987 3 c0 -3 -4 -8 -10 -11 -5 -3 -10 -1 -10 4 0 6 5 11 10 11 6 0 10 -2 10
-4z m-1321 -28 c0 -13 -3 -17 -6 -10 -2 6 -9 10 -14 7 -5 -4 -6 1 -3 9 9 24
24 19 23 -6z m528 -10 c-3 -7 -5 -2 -5 12 0 14 2 19 5 13 2 -7 2 -19 0 -25z
m353 12 c0 -11 -4 -20 -8 -20 -4 0 -8 9 -8 20 0 11 4 20 8 20 4 0 8 -9 8 -20z
m100 10 c0 -5 -4 -10 -10 -10 -5 0 -10 5 -10 10 0 6 5 10 10 10 6 0 10 -4 10
-10z m-855 -20 c-3 -5 -10 -10 -16 -10 -5 0 -9 5 -9 10 0 6 7 10 16 10 8 0 12
-4 9 -10z m232 -12 c-3 -8 -6 -5 -6 6 -1 11 2 17 5 13 3 -3 4 -12 1 -19z m968
12 c3 -5 1 -10 -4 -10 -6 0 -11 5 -11 10 0 6 2 10 4 10 3 0 8 -4 11 -10z
m-1420 -10 c-3 -5 -12 -10 -18 -10 -7 0 -6 4 3 10 19 12 23 12 15 0z m-205
-12 c0 -4 -9 -8 -20 -8 -11 0 -20 4 -20 8 0 4 9 8 20 8 11 0 20 -4 20 -8z
m-266 -13 c-4 -8 -8 -15 -10 -15 -2 0 -4 7 -4 15 0 8 4 15 10 15 5 0 7 -7 4
-15z m766 -7 c0 -13 -23 -5 -28 10 -2 7 2 10 12 6 9 -3 16 -11 16 -16z m-600
5 c0 -5 -5 -15 -10 -23 -8 -12 -10 -11 -10 8 0 12 5 22 10 22 6 0 10 -3 10 -7z
m240 3 c0 -3 -4 -8 -10 -11 -5 -3 -10 -1 -10 4 0 6 5 11 10 11 6 0 10 -2 10
-4z m1059 0 c-2 -2 -15 -9 -29 -15 -24 -11 -24 -11 -6 3 16 13 49 24 35 12z
m331 -6 c0 -5 -10 -10 -22 -9 -22 0 -22 1 -3 9 11 5 21 9 23 9 1 1 2 -3 2 -9z
m-1362 -25 c-3 -3 -9 2 -12 12 -6 14 -5 15 5 6 7 -7 10 -15 7 -18z m833 2
c-10 -9 -11 -8 -5 6 3 10 9 15 12 12 3 -3 0 -11 -7 -18z m-1054 7 c-3 -3 -12
-4 -19 -1 -8 3 -5 6 6 6 11 1 17 -2 13 -5z m123 2 c0 -2 -7 -6 -15 -10 -8 -3
-15 -1 -15 4 0 6 7 10 15 10 8 0 15 -2 15 -4z m840 -6 c0 -5 -5 -10 -11 -10
-5 0 -7 5 -4 10 3 6 8 10 11 10 2 0 4 -4 4 -10z m-1201 -44 c-9 -8 -10 -7 -5
7 3 10 7 24 7 30 1 7 3 4 6 -7 3 -10 -1 -23 -8 -30z m1131 24 c0 -5 -4 -10
-10 -10 -5 0 -10 5 -10 10 0 6 5 10 10 10 6 0 10 -4 10 -10z m-518 -22 c-6 -6
-15 -8 -19 -4 -4 4 -1 11 7 16 19 12 27 3 12 -12z m-754 -13 c-3 -3 -9 2 -12
12 -6 14 -5 15 5 6 7 -7 10 -15 7 -18z m912 15 c0 -5 -5 -10 -11 -10 -5 0 -7
5 -4 10 3 6 8 10 11 10 2 0 4 -4 4 -10z m100 0 c0 -5 -4 -10 -10 -10 -5 0 -10
5 -10 10 0 6 5 10 10 10 6 0 10 -4 10 -10z m495 0 c-3 -5 -11 -10 -16 -10 -6
0 -7 5 -4 10 3 6 11 10 16 10 6 0 7 -4 4 -10z m81 -5 c-11 -8 -25 -15 -30 -15
-6 1 0 7 14 15 32 19 40 18 16 0z m104 5 c0 -5 -4 -10 -10 -10 -5 0 -10 5 -10
10 0 6 5 10 10 10 6 0 10 -4 10 -10z m-1510 -35 c14 -19 14 -19 -2 -6 -10 7
-18 18 -18 24 0 6 1 8 3 6 1 -2 9 -13 17 -24z m500 15 c0 -5 -4 -10 -9 -10 -6
0 -13 5 -16 10 -3 6 1 10 9 10 9 0 16 -4 16 -10z m260 0 c0 -5 -2 -10 -4 -10
-3 0 -8 5 -11 10 -3 6 -1 10 4 10 6 0 11 -4 11 -10z m-523 -6 c-3 -3 -12 -4
-19 -1 -8 3 -5 6 6 6 11 1 17 -2 13 -5z m1193 -4 c0 -5 -4 -10 -10 -10 -5 0
-10 5 -10 10 0 6 5 10 10 10 6 0 10 -4 10 -10z m-20 -24 c0 -3 -4 -8 -10 -11
-5 -3 -10 -1 -10 4 0 6 5 11 10 11 6 0 10 -2 10 -4z m-1405 -16 c-3 -5 -14
-10 -23 -9 -14 0 -13 2 3 9 27 11 27 11 20 0z m1142 4 c-3 -3 -12 -4 -19 -1
-8 3 -5 6 6 6 11 1 17 -2 13 -5z m323 -16 c0 -4 -4 -8 -9 -8 -6 0 -12 4 -15 8
-3 5 1 9 9 9 8 0 15 -4 15 -9z m-393 -4 c-3 -3 -12 -4 -19 -1 -8 3 -5 6 6 6
11 1 17 -2 13 -5z m-632 -14 c3 -6 -1 -7 -9 -4 -18 7 -21 14 -7 14 6 0 13 -4
16 -10z m405 0 c0 -5 -4 -10 -10 -10 -5 0 -10 5 -10 10 0 6 5 10 10 10 6 0 10
-4 10 -10z m586 -2 c4 -7 3 -8 -4 -4 -7 4 -12 2 -12 -5 0 -7 -3 -10 -6 -6 -6
5 3 27 11 27 2 0 7 -5 11 -12z m-826 -18 c0 -5 -4 -10 -10 -10 -5 0 -10 5 -10
10 0 6 5 10 10 10 6 0 10 -4 10 -10z m-47 -7 c-7 -2 -19 -2 -25 0 -7 3 -2 5
12 5 14 0 19 -2 13 -5z"/>
<path d="M1055 1750 c3 -5 2 -10 -4 -10 -6 0 -8 -7 -5 -15 9 -24 24 -17 24 10
0 14 -5 25 -11 25 -5 0 -7 -4 -4 -10z"/>
<path d="M1210 1752 c0 -12 19 -26 26 -19 2 2 -2 10 -11 17 -9 8 -15 8 -15 2z"/>
<path d="M1553 1725 c0 -14 3 -22 8 -19 5 3 9 11 9 19 0 8 -4 16 -9 19 -5 3
-8 -5 -8 -19z"/>
<path d="M899 1683 c7 -14 5 -21 -11 -29 -14 -7 -17 -14 -9 -18 6 -4 11 -2 11
4 0 6 5 8 10 5 6 -3 10 -1 10 5 0 6 5 8 10 5 6 -4 5 5 -2 19 -6 14 -15 26 -20
26 -5 0 -5 -8 1 -17z"/>
<path d="M832 1638 c2 -6 10 -13 16 -14 7 -1 8 0 2 3 -5 2 -8 9 -4 14 3 5 0 9
-6 9 -7 0 -10 -5 -8 -12z"/>
<path d="M795 1630 c-3 -5 -1 -10 4 -10 6 0 11 5 11 10 0 6 -2 10 -4 10 -3 0
-8 -4 -11 -10z"/>
<path d="M680 1460 c0 -5 5 -10 11 -10 5 0 7 5 4 10 -3 6 -8 10 -11 10 -2 0
-4 -4 -4 -10z"/>
<path d="M599 1344 c-11 -13 -20 -64 -12 -64 2 0 13 10 25 22 16 16 17 20 5
15 -23 -9 -22 19 1 32 9 6 12 11 6 11 -6 0 -17 -7 -25 -16z"/>
<path d="M550 1305 c0 -8 2 -15 4 -15 2 0 6 7 10 15 3 8 1 15 -4 15 -6 0 -10
-7 -10 -15z"/>
<path d="M1690 1631 c0 -5 5 -13 10 -16 6 -3 10 -2 10 4 0 5 -4 13 -10 16 -5
3 -10 2 -10 -4z"/>
<path d="M1626 1704 c-8 -21 -8 -34 2 -34 4 0 9 11 10 25 2 28 -3 32 -12 9z"/>
<path d="M1215 1624 c-11 -2 -45 -9 -75 -15 -101 -21 -196 -74 -279 -158 -123
-122 -171 -236 -171 -408 0 -251 157 -461 408 -546 56 -18 88 -22 197 -21 116
0 137 3 197 27 139 54 220 118 296 231 88 132 119 298 83 446 -49 197 -222
372 -421 425 -58 16 -201 27 -235 19z m264 -48 c174 -59 315 -203 366 -373 22
-71 20 -83 -12 -83 -16 -1 -41 -7 -58 -16 -26 -12 -27 -14 -5 -9 14 3 42 8 63
11 l37 7 0 -54 c-1 -114 -50 -263 -115 -343 l-24 -30 -54 57 -54 56 22 33 c43
65 60 127 60 223 0 80 -4 97 -32 157 -76 162 -258 263 -433 243 l-57 -7 -40
46 -41 46 -21 -35 c-23 -40 -40 -44 -66 -15 -10 11 -21 18 -23 15 -3 -3 5 -16
17 -29 12 -13 18 -27 13 -30 -5 -3 -17 3 -27 14 -10 11 -23 20 -29 20 -6 -1 0
-9 12 -20 22 -18 22 -21 8 -35 -8 -9 -19 -17 -23 -18 -4 -1 -7 -8 -7 -14 2
-15 -22 -17 -31 -3 -8 13 -25 13 -25 -1 0 -5 5 -7 10 -4 6 3 10 -3 10 -14 0
-30 16 -26 55 14 32 32 35 33 45 15 8 -15 2 -27 -39 -69 -27 -28 -60 -73 -73
-100 -12 -28 -28 -50 -33 -51 -6 0 -16 -15 -23 -33 -6 -17 -39 -56 -72 -85
-63 -55 -72 -80 -47 -117 8 -12 11 -30 7 -45 -6 -23 -8 -21 -20 20 -19 63 -17
202 4 275 36 122 121 239 229 314 144 99 355 126 526 67z m-330 -120 c37 -38
34 -56 -9 -56 -25 0 -31 5 -39 37 -17 62 0 69 48 19z m237 -30 c169 -45 290
-184 302 -347 8 -113 7 -114 -90 -113 -111 0 -118 1 -118 20 0 8 -4 12 -10 9
-15 -9 -12 4 8 33 34 50 37 56 19 49 -14 -5 -12 3 8 43 28 54 31 70 14 70 -25
0 -79 -74 -107 -146 l-29 -77 -69 -3 c-76 -3 -126 10 -118 31 3 7 -4 18 -15
25 -18 9 -21 20 -21 75 0 51 3 65 15 65 8 0 15 9 15 20 0 11 -6 20 -14 20 -21
0 -30 129 -10 151 9 10 13 23 9 28 -3 6 -2 11 4 11 5 0 12 9 16 19 3 11 14 22
23 24 36 10 119 6 168 -7z m-253 -63 c-18 -2 -48 -2 -65 0 -18 2 -4 4 32 4 36
0 50 -2 33 -4z m-85 -91 c3 -67 1 -72 -18 -72 -26 0 -27 -30 0 -37 17 -5 20
-14 20 -58 0 -84 -12 -102 -48 -67 -11 9 -38 34 -60 55 -48 44 -51 63 -22 123
26 52 98 136 114 131 6 -2 12 -33 14 -75z m92 -2 c0 -60 -2 -70 -17 -70 -32 0
-40 14 -42 78 l-2 62 30 0 31 0 0 -70z m40 -90 c0 -6 -31 -10 -74 -10 -41 0
-78 5 -81 10 -4 6 23 10 74 10 47 0 81 -4 81 -10z m-30 -90 c0 -73 -2 -76 -47
-64 -21 6 -23 12 -23 70 l0 64 35 0 35 0 0 -70z m323 -1 c-14 -28 -26 -56 -27
-63 -1 -6 -4 -15 -7 -21 -17 -30 -18 -44 -2 -38 10 4 3 -11 -18 -39 -19 -25
-39 -54 -46 -64 -9 -15 -9 -11 -1 21 16 63 69 197 92 232 32 48 38 29 9 -28z
m-502 -49 c5 0 16 -11 25 -25 15 -23 15 -27 0 -50 -14 -21 -24 -25 -66 -25
-47 0 -50 2 -50 25 0 36 -1 39 -13 53 -8 11 -7 16 6 23 19 11 23 30 6 27 -6
-2 -13 6 -15 17 -8 44 6 44 52 0 25 -25 50 -45 55 -45z m209 -40 c0 -6 -32
-10 -75 -10 -43 0 -75 4 -75 10 0 6 32 10 75 10 43 0 75 -4 75 -10z m-27 -57
c7 -33 2 -38 -40 -46 -33 -6 -33 -6 -33 33 0 39 1 40 34 40 29 0 34 -4 39 -27z
m-168 -33 c4 -6 -35 -10 -112 -10 -66 0 -112 4 -105 9 19 12 210 13 217 1z
m365 -29 c0 -17 -18 -21 -24 -6 -3 9 0 15 9 15 8 0 15 -4 15 -9z m-350 -11 c8
-5 12 -11 10 -13 -12 -11 -96 -51 -102 -49 -5 1 -7 -3 -5 -10 1 -6 -6 -14 -15
-16 -14 -2 -16 1 -11 14 4 12 3 15 -5 10 -8 -5 -10 -2 -6 8 3 9 10 16 14 16 4
0 11 11 14 25 6 22 12 25 49 25 23 0 49 -4 57 -10z m149 -11 c-16 -10 -23 -4
-14 10 3 6 11 8 17 5 6 -4 5 -9 -3 -15z m126 11 c4 -6 16 -8 28 -5 18 5 19 4
6 -4 -12 -8 -25 -7 -45 4 -19 9 -23 15 -12 15 9 0 20 -5 23 -10z m-168 -7 c-9
-2 -15 -9 -12 -14 4 -5 2 -9 -4 -9 -5 0 -12 4 -15 9 -7 10 11 20 34 19 10 0 9
-2 -3 -5z m133 -3 c8 -5 11 -10 5 -10 -5 0 -17 5 -25 10 -8 5 -10 10 -5 10 6
0 17 -5 25 -10z m176 1 c-3 -5 4 -11 16 -14 12 -4 20 -9 16 -12 -3 -3 -17 0
-32 6 -19 9 -23 15 -14 21 17 10 20 10 14 -1z m88 -36 c3 3 2 0 -4 -7 -6 -8
-6 -16 1 -25 17 -19 5 -16 -20 6 -24 21 -20 51 3 32 7 -6 16 -9 20 -6z m-451
-7 c-4 -7 -8 -16 -8 -20 0 -3 -4 -10 -8 -15 -5 -4 -7 -3 -5 4 2 6 -1 11 -7 11
-5 1 -9 -6 -7 -14 2 -8 -2 -14 -8 -14 -6 0 -8 5 -5 10 3 6 -4 14 -17 19 -24
10 -21 11 31 15 11 0 23 4 27 9 12 11 16 8 7 -5z m37 8 c0 -2 -7 -9 -15 -16
-13 -11 -14 -10 -9 4 5 14 24 23 24 12z m65 -6 c-3 -5 -12 -10 -18 -10 -7 0
-6 4 3 10 19 12 23 12 15 0z m77 -10 c4 -3 -11 -5 -34 -5 l-40 0 28 11 c16 7
31 9 34 6 3 -4 8 -9 12 -12z m45 4 c-3 -3 -12 -4 -19 -1 -8 3 -5 6 6 6 11 1
17 -2 13 -5z m132 -30 c14 -12 -19 -1 -35 12 -18 14 -18 14 6 3 14 -6 27 -13
29 -15z m-289 13 c0 -2 -11 -13 -25 -25 -17 -15 -25 -17 -25 -8 0 7 10 18 23
24 26 13 27 13 27 9z m167 -14 c0 -10 -4 -10 -16 -1 -9 7 -18 13 -20 15 -2 1
5 1 16 0 11 0 20 -7 20 -14z m273 -3 c0 -5 -2 -10 -4 -10 -3 0 -8 5 -11 10 -3
6 -1 10 4 10 6 0 11 -4 11 -10z m-573 -32 c8 -10 6 -19 -7 -36 -11 -13 -21
-18 -25 -12 -3 5 -1 10 5 10 6 0 8 5 5 10 -3 6 -1 10 4 10 23 0 10 18 -16 23
-20 4 -31 0 -41 -14 -7 -10 -19 -19 -25 -19 -7 0 3 14 21 30 34 31 53 31 79
-2z m268 12 c6 -9 -58 -135 -74 -144 -4 -3 -27 2 -52 10 l-44 14 49 -6 c33 -4
46 -2 41 5 -3 6 -31 11 -62 11 -45 0 -54 -3 -49 -15 3 -9 0 -15 -10 -15 -17 0
-12 11 43 97 l34 53 59 0 c32 0 62 -4 65 -10z m143 -1 c45 -15 30 -29 -18 -17
-22 6 -37 14 -34 19 7 12 14 11 52 -2z m-73 -9 c-3 -5 -13 -10 -21 -10 -8 0
-14 -4 -14 -8 0 -4 24 -7 54 -7 30 0 57 -3 60 -6 3 -3 -8 -31 -25 -62 -28 -52
-33 -56 -57 -51 -36 9 -43 16 -12 14 38 -3 46 -1 30 10 -8 5 -36 10 -62 10
-36 0 -48 -4 -48 -15 0 -8 -4 -15 -10 -15 -5 0 -10 3 -10 6 0 11 73 129 84
136 16 11 38 10 31 -2z m171 -3 c4 -4 0 -7 -9 -7 -9 0 -18 4 -21 9 -7 10 20 9
30 -2z m112 -12 c-3 -3 -9 2 -12 12 -6 14 -5 15 5 6 7 -7 10 -15 7 -18z m-18
1 c0 -2 -7 -7 -16 -10 -8 -3 -12 -2 -9 4 6 10 25 14 25 6z m89 -32 c17 -19 29
-40 26 -45 -9 -14 -25 0 -18 16 4 11 1 13 -11 9 -12 -5 -15 -2 -10 10 3 9 1
16 -5 16 -6 0 -11 -6 -11 -12 0 -9 -4 -8 -10 2 -9 13 -11 13 -20 0 -13 -20
-13 -4 0 21 15 27 23 24 59 -17z m-789 -20 c0 -8 -4 -14 -9 -14 -12 0 -32 26
-25 33 10 9 34 -4 34 -19z m150 6 c-7 -4 -10 -12 -6 -18 3 -6 -1 -9 -11 -7
-10 2 -22 4 -26 4 -5 1 -5 6 -1 12 5 8 9 8 14 -1 6 -9 10 -6 15 9 3 12 11 18
17 15 7 -4 6 -9 -2 -14z m409 -37 c-18 -32 -37 -66 -43 -75 -11 -19 -75 -23
-125 -9 -20 5 -22 8 -9 19 12 9 23 10 42 2 40 -15 40 -15 71 43 38 71 44 77
72 77 l24 0 -32 -57z m85 31 c3 -8 2 -12 -4 -9 -6 3 -10 10 -10 16 0 14 7 11
14 -7z m69 -20 c-4 -12 -8 -13 -14 -3 -9 15 -2 32 11 24 5 -3 6 -13 3 -21z
m-660 -15 c-8 -8 -13 -7 -18 2 -5 8 -4 10 3 5 7 -4 12 -2 12 5 0 7 3 9 7 6 4
-4 2 -12 -4 -18z m676 -23 c-9 -8 -10 -7 -5 7 3 10 7 24 7 30 1 7 3 4 6 -7 3
-10 -1 -23 -8 -30z m51 27 c0 -19 -28 -53 -43 -53 -6 0 0 11 13 26 21 21 22
27 10 34 -13 8 -12 10 3 10 9 0 17 -7 17 -17z m-650 -19 c0 -2 -9 0 -20 6 -14
7 -20 7 -20 0 0 -5 5 -10 10 -10 6 0 10 -5 10 -12 0 -6 -3 -8 -7 -5 -3 4 -12
-1 -19 -11 -8 -9 -14 -12 -14 -5 0 6 5 15 10 18 6 4 8 11 5 16 -11 17 5 30 26
19 10 -6 19 -13 19 -16z m540 22 c0 -2 -7 -9 -15 -16 -13 -11 -14 -10 -9 4 5
14 24 23 24 12z m22 -60 c-3 -5 -9 -1 -13 10 -12 31 -10 39 5 19 8 -11 12 -24
8 -29z m-70 16 c-7 -2 -12 -10 -12 -18 0 -8 -4 -14 -10 -14 -6 0 -5 10 2 25 6
13 16 21 21 18 8 -5 7 -8 -1 -11z m-352 -27 c9 -10 9 -15 1 -15 -6 0 -11 5
-11 11 0 6 -9 9 -20 6 -11 -3 -20 -1 -20 4 0 15 36 10 50 -6z m397 -27 c-7 -4
-16 -8 -22 -8 -5 0 -3 5 5 10 8 5 11 10 7 10 -5 0 -5 5 -1 11 4 8 9 7 15 -2 5
-8 3 -17 -4 -21z m-513 11 c-2 -4 5 -10 16 -14 11 -3 20 -10 20 -15 0 -13 -41
1 -47 16 -3 8 -10 11 -16 7 -5 -3 -7 -2 -4 4 3 5 13 10 21 10 8 0 13 -4 10 -8z
m56 1 c0 -5 -7 -10 -16 -10 -8 0 -12 5 -9 10 3 6 10 10 16 10 5 0 9 -4 9 -10z
m136 -22 c4 -7 4 -10 -1 -6 -4 4 -14 3 -21 -3 -8 -7 -14 -6 -20 2 -4 7 -3 9 4
5 6 -3 13 -2 17 4 8 13 12 13 21 -2z m67 -5 c-7 -2 -19 -2 -25 0 -7 3 -2 5 12
5 14 0 19 -2 13 -5z m44 1 c-3 -3 -12 -4 -19 -1 -8 3 -5 6 6 6 11 1 17 -2 13
-5z m158 -4 c3 -5 1 -10 -4 -10 -6 0 -11 5 -11 10 0 6 2 10 4 10 3 0 8 -4 11
-10z m-329 -19 c-4 -5 -3 -11 1 -14 5 -2 2 -2 -5 0 -8 1 -23 4 -35 4 -17 1
-15 3 8 9 17 4 31 8 33 9 2 0 1 -3 -2 -8z m142 -28 c-10 -2 -26 -2 -35 0 -10
3 -2 5 17 5 19 0 27 -2 18 -5z"/>
<path d="M1257 1563 c-5 -7 -6 -17 -2 -22 3 -5 -1 -16 -9 -24 -8 -8 -12 -17
-9 -21 4 -3 -2 -13 -13 -21 -16 -12 -16 -14 -3 -15 21 0 52 59 47 90 -2 17 -6
21 -11 13z"/>
<path d="M1284 1518 c3 -10 1 -18 -4 -18 -6 0 -10 -4 -10 -10 0 -12 27 -13 34
-1 3 4 -2 17 -10 27 -14 17 -15 17 -10 2z"/>
<path d="M1396 1522 c-3 -5 -4 -16 -2 -26 2 -15 12 -19 56 -19 31 -1 55 3 57
10 5 14 -58 24 -74 11 -13 -11 -28 6 -18 22 3 6 2 10 -4 10 -5 0 -12 -4 -15
-8z"/>
<path d="M1526 1495 c5 -20 1 -27 -17 -34 l-24 -10 23 0 c12 -1 22 -7 22 -14
0 -8 12 -20 28 -28 15 -8 32 -21 39 -29 10 -13 14 -12 27 5 8 11 18 17 22 13
4 -5 -1 -18 -12 -30 -11 -14 -6 -11 13 6 25 22 29 31 20 41 -8 9 -16 10 -24 3
-10 -8 -13 -5 -13 11 0 11 -5 21 -10 21 -6 0 -8 -11 -4 -25 5 -19 2 -25 -11
-25 -10 0 -13 5 -9 12 4 6 3 8 -3 5 -6 -4 -20 2 -31 12 -20 17 -20 19 -5 41
15 22 15 23 0 17 -12 -5 -17 -1 -17 13 0 11 -5 20 -10 20 -6 0 -8 -11 -4 -25z"/>
<path d="M950 1445 c7 -8 17 -15 22 -15 6 0 5 7 -2 15 -7 8 -17 15 -22 15 -6
0 -5 -7 2 -15z"/>
<path d="M826 1321 c-4 -5 6 -18 21 -29 31 -23 30 -27 -9 -37 -23 -6 -27 -4
-31 22 -4 22 -5 21 -3 -7 1 -27 5 -34 19 -32 20 3 22 -9 5 -26 -8 -8 -18 -6
-41 10 -17 12 -27 17 -24 10 4 -6 22 -21 39 -34 17 -12 28 -17 24 -10 -4 7 -2
12 5 12 6 0 9 -8 6 -20 -3 -11 -1 -20 4 -20 8 0 14 46 10 78 -1 6 5 12 12 12
8 0 22 10 31 23 14 19 15 20 9 2 -5 -16 -3 -17 6 -9 18 16 -4 58 -25 50 -9 -3
-24 -1 -34 4 -11 6 -21 6 -24 1z"/>
<path d="M1667 1324 c-3 -3 1 -17 9 -32 9 -17 10 -30 4 -36 -16 -16 -12 -26
10 -26 11 0 23 -8 26 -17 15 -49 35 -83 49 -83 21 0 78 30 71 37 -3 3 -11 1
-18 -4 -7 -6 -24 -14 -37 -18 -21 -6 -23 -5 -18 14 3 15 0 24 -10 28 -11 4
-12 8 -2 13 17 11 3 44 -16 36 -8 -3 -15 -1 -15 4 0 6 7 10 15 10 8 0 15 5 15
10 0 6 -9 10 -19 10 -30 0 -34 17 -9 34 12 9 18 16 12 16 -5 0 -16 -6 -23 -12
-10 -11 -15 -10 -25 4 -7 10 -15 15 -19 12z"/>
<path d="M780 1165 c0 -27 -1 -27 -24 -11 -15 10 -27 12 -31 6 -3 -6 0 -10 8
-10 8 0 18 -10 21 -22 6 -23 6 -23 32 6 25 29 27 47 6 54 -7 2 -12 -7 -12 -23z"/>
<path d="M1131 751 c-9 -6 7 -10 47 -13 60 -3 79 3 46 16 -23 9 -77 7 -93 -3z"/>
<path d="M1930 1469 c0 -5 5 -7 10 -4 6 3 10 8 10 11 0 2 -4 4 -10 4 -5 0 -10
-5 -10 -11z"/>
<path d="M2055 1190 c3 -5 8 -10 11 -10 2 0 4 5 4 10 0 6 -5 10 -11 10 -5 0
-7 -4 -4 -10z"/>
<path d="M1978 1173 c6 -2 18 -2 25 0 6 3 1 5 -13 5 -14 0 -19 -2 -12 -5z"/>
<path d="M2013 925 c-10 -11 -9 -15 7 -20 28 -9 44 3 29 21 -14 17 -21 17 -36
-1z"/>
<path d="M510 1020 c0 -5 7 -6 17 -3 10 4 14 2 10 -4 -3 -5 0 -10 8 -10 8 0
15 6 15 14 0 7 -11 13 -25 13 -14 0 -25 -4 -25 -10z"/>
<path d="M540 936 c0 -2 7 -6 15 -10 8 -3 15 -1 15 4 0 6 -7 10 -15 10 -8 0
-15 -2 -15 -4z"/>
<path d="M2010 826 c0 -2 7 -6 15 -10 8 -3 15 -1 15 4 0 6 -7 10 -15 10 -8 0
-15 -2 -15 -4z"/>
<path d="M575 770 c-9 -15 3 -30 20 -24 23 9 27 34 5 34 -10 0 -22 -4 -25 -10z"/>
<path d="M610 680 c0 -5 5 -10 11 -10 5 0 7 5 4 10 -3 6 -8 10 -11 10 -2 0 -4
-4 -4 -10z"/>
</g>
</svg>
